<?xml version="1.0" encoding="utf-8"?>
<!-- Generator: Adobe Illustrator 21.0.0, SVG Export Plug-In . SVG Version: 6.00 Build 0)  -->
<svg version="1.1" id="Layer_1" xmlns="http://www.w3.org/2000/svg" xmlns:xlink="http://www.w3.org/1999/xlink" x="0px" y="0px"
	 viewBox="0 0 776.6 776.6" style="enable-background:new 0 0 776.6 776.6;" xml:space="preserve">
<style type="text/css">
	.st0{fill:#FFFFFF;}
	.st1{fill:#939393;}
</style>
<title>Email</title>
<circle class="st0" cx="388.3" cy="401.6" r="300"/>
<path class="st1" d="M407.2,776.6h-39.4c-1-0.2-2.1-0.3-3.2-0.4c-29-0.4-57.3-5.5-85-13.8c-60.4-18.1-114-47.8-159.5-92
	c-26.9-26.2-50.7-54.8-69.3-87.5c-31-54.7-49-113.2-50.6-176.3c-1-37,0.6-73.6,9.7-109.7c16.2-64.2,45.3-121.4,90.5-170.1
	c28.7-30.9,60.7-57.7,97.8-78.3c48.2-26.6,99.4-43.2,154.4-47.1c29-2.2,58-1.7,86.9,1.6c29.3,3.3,58.1,10.3,85.7,20.8
	c77.6,29.7,139.6,79.3,186.3,147.8c38.4,56.3,59.6,118.6,64,186.7c0.3,4.8,0.7,9.5,1.1,14.3v32.4c-0.2,1.5-0.4,3.1-0.5,4.6
	c-0.9,23.6-3.6,47.1-9.3,70.1c-16.5,67.5-48.1,127-96.7,177c-17.4,17.9-35.5,35.1-56.2,49.5c-57.8,40.2-121.3,64.7-191.9,69.7
	C417.1,776,412.1,776.3,407.2,776.6z M169.6,319.9c0,2.2,0,3.4,0,4.7c0,60.3,0,120.6-0.1,180.9c-0.2,4.5,1.4,9,4.5,12.3
	c6.2,7,13,11.3,22.8,11.2c17.4-0.1,34.9,0.8,52.3,0.9c81.2,0.2,162.4,0.3,243.6,0.3c23.3,0,46.7-0.3,70-0.8c9-0.2,18-1.3,26.9-2.3
	c4.9-0.5,9.2-3.4,11.4-7.8c1.3-2.3,3-4.3,4.3-6.7c1-1.6,1.5-3.5,1.7-5.4c0.1-61.1,0.1-122.2,0.1-183.3v-4c-3.3,0.7-6.3,0.9-8.8,2
	c-9.7,4.4-19.4,8.9-28.9,13.8c-54.1,28-108.2,56-162.2,84.1c-2,1-4.2,1.5-6.4,1.5c-8.5,0.2-17.1,0.1-25.6,0c-1.6,0-3.3-0.4-4.7-1.2
	c-41.3-21.4-82.5-43-123.8-64.3c-22.6-11.6-45.4-22.7-68.1-33.8C176,320.9,173,320.7,169.6,319.9z M395.4,246.8v0.1
	c-50,0-100-0.1-150,0.1c-19.6,0.1-39.2,0.8-58.8,1.4c-4.1,0.2-8.2,0.7-12.2,1.6c-4.3,0.9-5,2.3-4.7,6.7c0.2,3.9,2,7.5,5,10
	c5.3,4.2,10.5,8.6,16.4,11.8c30.3,16.5,60.6,32.8,91.1,48.9c29.3,15.4,58.7,30.5,88.1,45.7c7.9,4.2,17.1,5.3,25.7,3
	c7.4-2.1,14.6-5,21.4-8.7c51.8-27.2,103.6-54.6,155.3-82.1c8.1-4.3,16-9.1,23.7-14.1c3.3-2.3,6.1-5.2,8.3-8.6
	c5.2-8.3,1.4-15-8.4-15.3c-7.5-0.2-15.1-0.4-22.6-0.4C514.2,246.8,454.8,246.8,395.4,246.8z"/>
</svg>
