<svg id="Layer_1" data-name="Layer 1" xmlns="http://www.w3.org/2000/svg" viewBox="0 0 794 794"><defs><style>.cls-1{fill:#3f5866;}.cls-2{fill:#2b3a42;}.cls-3{fill:#474d58;}.cls-4{fill:#414650;}.cls-5{fill:#d197bb;}.cls-6{fill:#bb634b;}.cls-7{fill:#7ca0ca;}.cls-8{fill:#414751;}</style></defs><title>hobby</title><circle class="cls-1" cx="397" cy="397" r="397"/><path class="cls-2" d="M49.52,400.93C47.9,209.74,208,42.77,412.94,49.51c180,5.93,343.45,157.66,337.44,362.68C745.08,593.06,593,756.88,387,750.3,204.77,744.48,50,593.2,49.52,400.93ZM399.1,738.07c189.14-2.22,337.74-150.18,338.41-336.51.68-188.87-149-339.15-338.35-339.12-187.77,0-335.33,150.21-336.81,334.45C60.82,587.13,212.09,735.78,399.1,738.07Z" transform="translate(-3 -3)"/><path class="cls-1" d="M399.1,738.07c-187-2.29-338.28-150.94-336.75-341.18,1.48-184.24,149-334.42,336.81-334.45,189.35,0,339,150.25,338.35,339.12C736.83,587.89,588.24,735.85,399.1,738.07Zm325-337.65C723.65,219.33,581.58,80.5,409.87,76,219.16,71.1,79.94,220.66,76,390.61,71.61,580.57,220.08,720,391.23,724,579.36,728.38,724.09,579.17,724.11,400.42Z" transform="translate(-3 -3)"/><path class="cls-3" d="M724.11,400.42c0,178.74-144.75,328-332.88,323.59C220.08,720,71.61,580.57,76,390.61,79.94,220.66,219.16,71.1,409.87,76,581.58,80.5,723.65,219.33,724.11,400.42ZM400,122.41q-36,0-72.08,0c-19.41,0-28.68,9.19-28.7,28.43q0,66.66,0,133.32c0,15,0,15-14.64,15q-67.82,0-135.64,0c-16.37,0-26.42,9.82-26.45,26q-.17,74.8,0,149.6c0,15.41,11,26,26.49,26q69,0,138,0c12.13,0,12.28.14,12.28,12q0,68.21,0,136.42c0,19.14,9.3,28.38,28.63,28.39q72.09,0,144.17,0c19.51,0,28.79-9.43,28.8-29.2q0-66.66,0-133.32c0-14.25,0-14.26,13.87-14.26q67.43,0,134.87,0c18.18,0,28-9.68,28-27.62q.07-73.25,0-146.5c0-17.78-9.67-27.46-27.21-27.47q-68.6,0-137.19,0c-12.34,0-12.36,0-12.36-12.67,0-45.47-.6-91,.32-136.41.33-16.05-14.14-28.53-28.29-28C448.59,123.1,424.27,122.41,400,122.41Z" transform="translate(-3 -3)"/><path class="cls-4" d="M400,122.41c24.29,0,48.6.69,72.85-.26,14.15-.56,28.61,11.91,28.29,28-.92,45.45-.33,90.94-.32,136.41,0,12.65,0,12.66,12.36,12.67q68.6,0,137.19,0c17.54,0,27.2,9.69,27.21,27.47q.08,73.25,0,146.5c0,17.94-9.85,27.61-28,27.62q-67.43.05-134.87,0c-13.87,0-13.87,0-13.87,14.26q0,66.66,0,133.32c0,19.77-9.29,29.19-28.8,29.2q-72.09,0-144.17,0c-19.34,0-28.63-9.25-28.63-28.39q0-68.21,0-136.42c0-11.83-.15-12-12.28-12q-69,0-138,0c-15.5,0-26.46-10.6-26.49-26q-.16-74.8,0-149.6c0-16.13,10.08-25.92,26.45-26q67.82-.13,135.64,0c14.64,0,14.64,0,14.64-15q0-66.66,0-133.32c0-19.23,9.29-28.4,28.7-28.43Q363.95,122.38,400,122.41Zm.32,231.09c-25.28-.14-46.56,20.76-46.81,46-.26,26,20.89,47.05,47.31,47,23.74,0,45.63-21.88,45.69-45.63C446.56,374.77,426,353.64,400.31,353.5ZM229.18,476c40.6.07,76-35,76.22-75.38.2-41-34.92-76.52-75.74-76.59s-76.27,35.16-76.23,76.1C153.46,440.57,188.75,475.91,229.18,476Zm348.74,0c40.55.14,76.14-34.87,76.41-75.17.27-41-34.72-76.63-75.46-76.81s-76.48,35.21-76.51,75.9C502.33,440.3,537.64,475.85,577.92,476ZM399.28,643.48c43.47,1.79,76.36-36.44,76.65-74.92.3-40.46-34.51-74.67-74.52-75.74-44.21-1.18-77.27,36.85-77.32,75.23C324.05,609.89,359.71,644.87,399.28,643.48Zm1.11-491.61c-41,0-76.56,34.6-76.31,74.87.27,43.2,34.06,76.9,76.25,76.54,43.44-.37,74.81-34.29,75.49-75.71C476.49,186.93,440.92,151.89,400.39,151.87Z" transform="translate(-3 -3)"/><path class="cls-2" d="M400.31,353.5c25.65.15,46.26,21.28,46.19,47.37-.06,23.75-21.95,45.61-45.69,45.63-26.42,0-47.57-21-47.31-47C353.75,374.25,375,353.35,400.31,353.5Z" transform="translate(-3 -3)"/><path class="cls-2" d="M229.18,476c-40.43-.07-75.72-35.42-75.75-75.87,0-40.94,35.27-76.18,76.23-76.1s75.94,35.59,75.74,76.59C305.21,441,269.78,476.06,229.18,476Zm62.27-76.24c0-35.79-25.39-60.53-60.27-62.12-36.29-1.65-64.3,29.58-64.3,61.71,0,35.15,28.81,63.56,61.57,62.88C266.08,461.44,291.45,437,291.45,399.75Z" transform="translate(-3 -3)"/><path class="cls-2" d="M577.92,476c-40.28-.14-75.59-35.69-75.56-76.07,0-40.68,35.7-76.07,76.51-75.9s75.73,35.79,75.46,76.81C654.06,441.11,618.47,476.12,577.92,476Zm62.46-75.76c3-33.85-28.75-62.34-60.54-62.82-36.43-.55-64.63,29.67-63.76,62.31,1,36.35,25.8,62.31,61.71,62.32C615.18,462,640.37,437.17,640.38,400.23Z" transform="translate(-3 -3)"/><path class="cls-2" d="M399.28,643.48c-39.57,1.39-75.23-33.6-75.18-75.44,0-38.37,33.1-76.4,77.32-75.23,40,1.07,74.82,35.28,74.52,75.74C475.64,607,442.75,645.28,399.28,643.48ZM338,567.88c0,36.5,26.12,63.16,61.93,63.18,35,0,61.19-26.8,62.39-61.47,1.25-36.08-28.07-63.9-62.24-64.09C364.86,505.3,338,532.46,338,567.88Z" transform="translate(-3 -3)"/><path class="cls-2" d="M400.39,151.87c40.53,0,76.1,35.05,75.43,75.71-.68,41.42-32.05,75.34-75.49,75.71-42.18.36-76-33.34-76.25-76.54C323.83,186.48,359.39,151.86,400.39,151.87ZM338,227.23c0,36.78,25.68,62.68,62.15,62.67,35.77,0,61.11-26.26,62.16-62.11,1-33.25-24.81-63.14-62.38-63C361.79,164.88,336.1,195.15,338,227.23Z" transform="translate(-3 -3)"/><path class="cls-4" d="M291.45,399.75c0,37.22-25.37,61.7-63,62.47-32.76.68-61.57-27.73-61.57-62.88,0-32.13,28-63.36,64.3-61.71C266.06,339.21,291.45,364,291.45,399.75Zm-34,.27c0-7.48-.2-15,.08-22.43.17-4.46-1.58-5.74-5.85-5.69-15,.19-29.92-.1-44.87.31-1.85.05-5.13,3.19-5.18,5q-.62,22.81,0,45.63c0,1.79,3.3,4.94,5.14,5,14.95.41,29.91,0,44.86.34,5.07.1,6-2.08,5.88-6.45C257.27,414.46,257.45,407.23,257.45,400Z" transform="translate(-3 -3)"/><path class="cls-4" d="M640.38,400.23c0,36.94-25.2,61.81-62.59,61.81-35.9,0-60.73-26-61.71-62.32-.87-32.64,27.33-62.85,63.76-62.31C611.63,337.89,643.33,366.38,640.38,400.23Zm-61.54-28.09c-16,0-28.31,12-28.31,27.62,0,15.87,12.22,28.19,27.85,28.07s27.74-11.94,27.84-27.23C606.32,384.5,594.44,372.15,578.83,372.14Z" transform="translate(-3 -3)"/><path class="cls-4" d="M338,567.88c0-35.42,26.9-62.58,62.09-62.38,34.16.2,63.48,28,62.24,64.09-1.2,34.67-27.36,61.49-62.39,61.47C364.08,631,338,604.38,338,567.88Zm90.81-18.45c-1.53-1.87-2.5-4.14-3.72-4.29a8.6,8.6,0,0,0-6.15,1.57c-5.36,4.82-10.12,10.32-15.59,15-1.33,1.14-5.05,1.06-6.65,0-3.16-2.1-5.26-5.79-8.42-7.89-4.6-3.06-8-13.66-14.1-7.53-6.78,6.77,4.5,9.85,7.52,14.67,1.87,3,5.51,4.86,7.32,7.86,1.1,1.82,1.26,5.67.06,7.14-4.06,5-9.32,9-13.29,14-1.75,2.21-1.5,6-2.15,9.09,3.09-.81,6.84-.78,9.14-2.59a110.73,110.73,0,0,0,13.2-13c2.94-3.25,5.1-3.36,8.06,0,3.76,4.23,7.61,8.53,12.1,11.92,2.77,2.1,8.62,4.56,9.92,3.38,4.9-4.46-.52-7.46-3.25-10.51-4.78-5.32-13.53-10.52-13.52-15.75S418,562,422.78,556.67C424.79,554.46,426.6,552.07,428.77,549.43Z" transform="translate(-3 -3)"/><path class="cls-4" d="M338,227.23c-1.87-32.08,23.83-62.35,61.93-62.47,37.57-.11,63.35,29.78,62.38,63-1,35.85-26.39,62.1-62.16,62.11C363.64,289.91,338,264,338,227.23Zm62-33.68c-10.12,20.22-19.49,38.83-28.58,57.57-.4.83,1.78,4.21,2.79,4.22q26,.4,51.91,0c.84,0,2.75-3.5,2.28-4.46C419.4,232.3,410.13,213.87,400,193.55Z" transform="translate(-3 -3)"/><path class="cls-5" d="M257.45,400c0,7.22-.18,14.45.07,21.66.15,4.37-.81,6.55-5.88,6.45-15-.29-29.92.07-44.86-.34-1.84-.05-5.09-3.21-5.14-5q-.62-22.81,0-45.63c0-1.78,3.33-4.91,5.18-5,14.95-.41,29.91-.12,44.87-.31,4.27-.05,6,1.23,5.85,5.69C257.25,385,257.45,392.53,257.45,400ZM230.1,381.61c-19.06,0-19.06,0-19.06,18.88,0,17.89,0,17.89,17.75,17.89,19,0,19,0,19-18.89C247.83,381.61,247.83,381.61,230.1,381.61Z" transform="translate(-3 -3)"/><path class="cls-6" d="M578.83,372.14c15.6,0,27.49,12.36,27.38,28.46-.1,15.28-12.19,27.11-27.84,27.23s-27.86-12.2-27.85-28.07C550.53,384.15,562.86,372.13,578.83,372.14Zm18,27.5c-.09-9.29-9.17-18.14-18.62-18.16-9.25,0-18.23,9-18.37,18.45s9.35,18.8,19,18.56C588.18,418.26,597,409,596.87,399.64Z" transform="translate(-3 -3)"/><path class="cls-7" d="M428.77,549.43c-2.18,2.65-4,5-6,7.25-4.82,5.3-13.51,10.51-13.53,15.78s8.74,10.43,13.52,15.75c2.73,3,8.15,6,3.25,10.51-1.3,1.18-7.15-1.28-9.92-3.38-4.48-3.39-8.33-7.69-12.1-11.92-3-3.33-5.12-3.22-8.06,0a110.73,110.73,0,0,1-13.2,13c-2.3,1.81-6.05,1.79-9.14,2.59.66-3.08.4-6.88,2.15-9.09,4-5,9.23-9,13.29-14,1.21-1.47,1-5.32-.06-7.14-1.81-3-5.45-4.88-7.32-7.86-3-4.82-14.3-7.9-7.52-14.67,6.13-6.12,9.5,4.48,14.1,7.53,3.16,2.1,5.26,5.79,8.42,7.89,1.6,1.06,5.32,1.14,6.65,0,5.46-4.69,10.22-10.19,15.59-15a8.6,8.6,0,0,1,6.15-1.57C426.27,545.29,427.24,547.56,428.77,549.43Z" transform="translate(-3 -3)"/><path class="cls-7" d="M400,193.55c10.14,20.32,19.41,38.75,28.41,57.32.46,1-1.44,4.44-2.28,4.46q-26,.4-51.91,0c-1,0-3.19-3.39-2.79-4.22C380.49,232.37,389.87,213.77,400,193.55Zm-.14,52.17c16.7-.07,16.22,1.23,8.77-13.3-2.61-5.1-5.88-9.86-8.86-14.78-2.77,4.82-5.75,9.54-8.28,14.49C383.9,247,383.5,245.63,399.84,245.72Z" transform="translate(-3 -3)"/><path class="cls-3" d="M230.1,381.61c17.73,0,17.73,0,17.73,17.88,0,18.89,0,18.89-19,18.89-17.75,0-17.75,0-17.75-17.89C211,381.61,211,381.61,230.1,381.61Z" transform="translate(-3 -3)"/><path class="cls-4" d="M596.87,399.64c.09,9.41-8.68,18.63-18,18.85-9.68.24-19.17-9-19-18.56s9.11-18.47,18.37-18.45C587.7,381.5,596.77,390.35,596.87,399.64Z" transform="translate(-3 -3)"/><path class="cls-8" d="M399.84,245.72c-16.34-.08-15.94,1.28-8.36-13.58,2.53-5,5.51-9.67,8.28-14.49,3,4.92,6.24,9.68,8.86,14.78C416.07,246.95,416.55,245.65,399.84,245.72Z" transform="translate(-3 -3)"/></svg>